<svg width="30" height="40" viewBox="0 0 30 40" fill="none" xmlns="http://www.w3.org/2000/svg">
<g clip-path="url(#clip0_63_1683)">
<path d="M15.41 7.75501C15.375 7.67898 15.319 7.61457 15.2486 7.56942C15.1781 7.52426 15.0962 7.50026 15.0125 7.50026C14.9288 7.50026 14.8469 7.52426 14.7764 7.56942C14.706 7.61457 14.65 7.67898 14.615 7.75501L12.825 11.6375C12.7936 11.7051 12.7454 11.7636 12.685 11.8073C12.6246 11.8511 12.554 11.8787 12.48 11.8875L8.2325 12.3925C8.14968 12.4025 8.07145 12.436 8.00704 12.4891C7.94263 12.5421 7.89473 12.6124 7.86898 12.6918C7.84323 12.7711 7.8407 12.8562 7.8617 12.937C7.8827 13.0177 7.92635 13.0908 7.9875 13.1475L11.1275 16.05C11.1827 16.1009 11.2239 16.1651 11.2471 16.2364C11.2703 16.3078 11.2747 16.3839 11.26 16.4575L10.425 20.65C10.4086 20.732 10.4161 20.8169 10.4465 20.8948C10.477 20.9727 10.529 21.0402 10.5966 21.0894C10.6642 21.1386 10.7445 21.1674 10.828 21.1723C10.9114 21.1773 10.9945 21.1583 11.0675 21.1175L14.8 19.03C14.865 18.9939 14.9381 18.9749 15.0125 18.9749C15.0869 18.9749 15.16 18.9939 15.225 19.03L18.9575 21.1175C19.2825 21.3 19.6725 21.0175 19.6 20.65L18.7675 16.4575C18.7528 16.3839 18.7572 16.3078 18.7804 16.2364C18.8037 16.1651 18.8448 16.1009 18.9 16.05L22.0375 13.1475C22.0987 13.0908 22.1423 13.0177 22.1633 12.937C22.1843 12.8562 22.1818 12.7711 22.156 12.6918C22.1303 12.6124 22.0824 12.5421 22.018 12.4891C21.9536 12.436 21.8753 12.4025 21.7925 12.3925L17.5475 11.8875C17.473 11.8791 17.4019 11.8517 17.3411 11.8079C17.2802 11.7641 17.2317 11.7055 17.2 11.6375L15.41 7.75501V7.75501ZM30 15C30.0023 17.1108 29.558 19.1982 28.6963 21.125C27.8345 23.0519 26.5749 24.7746 25 26.18V38.75C24.9999 38.9689 24.9424 39.1839 24.8331 39.3736C24.7238 39.5633 24.5667 39.7209 24.3773 39.8308C24.188 39.9406 23.9731 39.9989 23.7542 39.9996C23.5353 40.0003 23.3201 39.9436 23.13 39.835L15 35.19L6.87 39.835C6.67993 39.9436 6.46468 40.0003 6.24578 39.9996C6.02688 39.9989 5.81202 39.9406 5.62268 39.8308C5.43335 39.7209 5.27618 39.5633 5.1669 39.3736C5.05763 39.1839 5.00007 38.9689 5 38.75V26.18C3.13504 24.5119 1.71697 22.4038 0.87493 20.0477C0.0328866 17.6915 -0.206383 15.1621 0.17891 12.6899C0.564203 10.2176 1.56182 7.88098 3.08091 5.89279C4.60001 3.9046 6.59232 2.32799 8.87643 1.30653C11.1605 0.285078 13.6639 -0.148777 16.1585 0.0444748C18.6532 0.237726 21.0598 1.05195 23.1594 2.41299C25.2589 3.77404 26.9847 5.63867 28.1794 7.83709C29.3742 10.0355 30.0001 12.4979 30 15V15ZM15 30C12.3667 30.0038 9.77927 29.3113 7.5 27.9925V36.5975L14.38 32.665C14.5688 32.5571 14.7825 32.5004 15 32.5004C15.2175 32.5004 15.4312 32.5571 15.62 32.665L22.5 36.6V27.995C20.2205 29.313 17.6331 30.0047 15 30V30ZM15 27.5C18.3152 27.5 21.4946 26.183 23.8388 23.8388C26.183 21.4946 27.5 18.3152 27.5 15C27.5 11.6848 26.183 8.50538 23.8388 6.16117C21.4946 3.81697 18.3152 2.50001 15 2.50001C11.6848 2.50001 8.50537 3.81697 6.16117 6.16117C3.81696 8.50538 2.5 11.6848 2.5 15C2.5 18.3152 3.81696 21.4946 6.16117 23.8388C8.50537 26.183 11.6848 27.5 15 27.5V27.5Z" fill="#FAFF00"/>
</g>
<defs>
<clipPath id="clip0_63_1683">
<rect width="30" height="40.0003" fill="white" transform="translate(0 -0.000335693)"/>
</clipPath>
</defs>
</svg>
