<svg width="30" height="40" viewBox="0 0 30 40" fill="none" xmlns="http://www.w3.org/2000/svg">
<path d="M15.41 7.75534C15.375 7.67931 15.319 7.6149 15.2486 7.56975C15.1781 7.5246 15.0962 7.5006 15.0125 7.5006C14.9288 7.5006 14.8469 7.5246 14.7764 7.56975C14.706 7.6149 14.65 7.67931 14.615 7.75534L12.825 11.6378C12.7936 11.7055 12.7454 11.7639 12.685 11.8077C12.6246 11.8514 12.554 11.879 12.48 11.8878L8.2325 12.3928C8.14968 12.4029 8.07145 12.4364 8.00704 12.4894C7.94263 12.5424 7.89473 12.6128 7.86898 12.6921C7.84323 12.7715 7.8407 12.8565 7.8617 12.9373C7.8827 13.018 7.92635 13.0911 7.9875 13.1478L11.1275 16.0503C11.1827 16.1012 11.2239 16.1654 11.2471 16.2368C11.2703 16.3081 11.2747 16.3843 11.26 16.4578L10.425 20.6503C10.4086 20.7323 10.4161 20.8173 10.4465 20.8951C10.477 20.973 10.529 21.0405 10.5966 21.0897C10.6642 21.1389 10.7445 21.1677 10.828 21.1727C10.9114 21.1777 10.9945 21.1586 11.0675 21.1178L14.8 19.0303C14.865 18.9942 14.9381 18.9753 15.0125 18.9753C15.0869 18.9753 15.16 18.9942 15.225 19.0303L18.9575 21.1178C19.2825 21.3003 19.6725 21.0178 19.6 20.6503L18.7675 16.4578C18.7528 16.3843 18.7572 16.3081 18.7804 16.2368C18.8037 16.1654 18.8448 16.1012 18.9 16.0503L22.0375 13.1478C22.0987 13.0911 22.1423 13.018 22.1633 12.9373C22.1843 12.8565 22.1818 12.7715 22.156 12.6921C22.1303 12.6128 22.0824 12.5424 22.018 12.4894C21.9536 12.4364 21.8753 12.4029 21.7925 12.3928L17.5475 11.8878C17.473 11.8794 17.4019 11.852 17.3411 11.8082C17.2802 11.7645 17.2317 11.7058 17.2 11.6378L15.41 7.75534ZM30 15.0003C30.0023 17.1111 29.558 19.1985 28.6963 21.1253C27.8345 23.0522 26.5749 24.7749 25 26.1803V38.7503C24.9999 38.9692 24.9424 39.1843 24.8331 39.374C24.7238 39.5636 24.5667 39.7213 24.3773 39.8311C24.188 39.941 23.9731 39.9992 23.7542 39.9999C23.5353 40.0007 23.3201 39.9439 23.13 39.8353L15 35.1903L6.87 39.8353C6.67993 39.9439 6.46468 40.0007 6.24578 39.9999C6.02688 39.9992 5.81202 39.941 5.62268 39.8311C5.43335 39.7213 5.27618 39.5636 5.1669 39.374C5.05763 39.1843 5.00007 38.9692 5 38.7503V26.1803C3.13504 24.5123 1.71697 22.4042 0.87493 20.048C0.0328866 17.6918 -0.206383 15.1625 0.17891 12.6902C0.564203 10.2179 1.56182 7.88132 3.08091 5.89312C4.60001 3.90493 6.59232 2.32833 8.87643 1.30687C11.1605 0.285414 13.6639 -0.148441 16.1585 0.0448105C18.6532 0.238062 21.0598 1.05228 23.1594 2.41333C25.2589 3.77437 26.9847 5.639 28.1794 7.83743C29.3742 10.0359 30.0001 12.4982 30 15.0003ZM15 30.0003C12.3667 30.0042 9.77927 29.3116 7.5 27.9928V36.5978L14.38 32.6653C14.5688 32.5575 14.7825 32.5007 15 32.5007C15.2175 32.5007 15.4312 32.5575 15.62 32.6653L22.5 36.6003V27.9953C20.2205 29.3133 17.6331 30.0051 15 30.0003ZM15 27.5003C18.3152 27.5003 21.4946 26.1834 23.8388 23.8392C26.183 21.495 27.5 18.3155 27.5 15.0003C27.5 11.6851 26.183 8.50571 23.8388 6.16151C21.4946 3.8173 18.3152 2.50034 15 2.50034C11.6848 2.50034 8.50537 3.8173 6.16117 6.16151C3.81696 8.50571 2.5 11.6851 2.5 15.0003C2.5 18.3155 3.81696 21.495 6.16117 23.8392C8.50537 26.1834 11.6848 27.5003 15 27.5003Z" fill="#0D0D0C"/>
<path d="M15.2486 7.56975C15.319 7.6149 15.375 7.67931 15.41 7.75534L17.2 11.6378C17.2317 11.7058 17.2802 11.7645 17.3411 11.8082C17.4019 11.852 17.473 11.8794 17.5475 11.8878L21.7925 12.3928C21.8753 12.4029 21.9536 12.4364 22.018 12.4894C22.0824 12.5424 22.1303 12.6128 22.156 12.6921C22.1818 12.7715 22.1843 12.8565 22.1633 12.9373C22.1423 13.018 22.0987 13.0911 22.0375 13.1478L18.9 16.0503C18.8448 16.1012 18.8037 16.1654 18.7804 16.2368C18.7572 16.3081 18.7528 16.3843 18.7675 16.4578L19.6 20.6503C19.6725 21.0178 19.2825 21.3003 18.9575 21.1178L15.225 19.0303C15.16 18.9942 15.0869 18.9753 15.0125 18.9753C14.9381 18.9753 14.865 18.9942 14.8 19.0303L11.0675 21.1178C10.9945 21.1586 10.9114 21.1777 10.828 21.1727C10.7445 21.1677 10.6642 21.1389 10.5966 21.0897C10.529 21.0405 10.477 20.973 10.4465 20.8951C10.4161 20.8173 10.4086 20.7323 10.425 20.6503L11.26 16.4578C11.2747 16.3843 11.2703 16.3081 11.2471 16.2368C11.2239 16.1654 11.1827 16.1012 11.1275 16.0503L7.9875 13.1478C7.92635 13.0911 7.8827 13.018 7.8617 12.9373C7.8407 12.8565 7.84323 12.7715 7.86898 12.6921C7.89473 12.6128 7.94263 12.5424 8.00704 12.4894C8.07145 12.4364 8.14968 12.4029 8.2325 12.3928L12.48 11.8878C12.554 11.879 12.6246 11.8514 12.685 11.8077C12.7454 11.7639 12.7936 11.7055 12.825 11.6378L14.615 7.75534C14.65 7.67931 14.706 7.6149 14.7764 7.56975C14.8469 7.5246 14.9288 7.5006 15.0125 7.5006C15.0962 7.5006 15.1781 7.5246 15.2486 7.56975Z" fill="#FAFF00"/>
</svg>
