<svg width="50" height="50" viewBox="0 0 50 50" fill="none" xmlns="http://www.w3.org/2000/svg">
<path fill-rule="evenodd" clip-rule="evenodd" d="M25.0002 1.17188C11.5183 1.17188 0.585938 12.1023 0.585938 25.5861C0.585938 36.373 7.58137 45.5245 17.2819 48.7528C18.502 48.9788 18.95 48.2231 18.95 47.5783C18.95 46.9961 18.9274 45.0729 18.9168 43.0329C12.1248 44.5097 10.6916 40.1523 10.6916 40.1523C9.58099 37.3304 7.98081 36.58 7.98081 36.58C5.7657 35.0647 8.14778 35.0958 8.14778 35.0958C10.5994 35.2681 11.8903 37.6117 11.8903 37.6117C14.0678 41.3442 17.6017 40.2651 18.9949 39.6413C19.214 38.0633 19.8467 36.9863 20.5449 36.3766C15.1222 35.7593 9.4217 33.6659 9.4217 24.311C9.4217 21.6455 10.3754 19.4676 11.9372 17.7579C11.6837 17.1429 10.848 14.6598 12.1737 11.2969C12.1737 11.2969 14.2239 10.6408 18.8894 13.7995C20.8368 13.2585 22.9254 12.9873 25.0002 12.978C27.075 12.9873 29.1652 13.2585 31.1163 13.7995C35.7761 10.6408 37.8235 11.2969 37.8235 11.2969C39.1524 14.6598 38.3163 17.1429 38.0628 17.7579C39.6282 19.4676 40.5755 21.6455 40.5755 24.311C40.5755 33.6881 34.8641 35.7528 29.4276 36.3572C30.3033 37.1149 31.0836 38.6006 31.0836 40.8784C31.0836 44.1451 31.0553 46.7742 31.0553 47.5783C31.0553 48.228 31.4947 48.9893 32.7322 48.7495C42.4275 45.5176 49.4141 36.3694 49.4141 25.5861C49.4141 12.1023 38.4833 1.17188 25.0002 1.17188ZM9.72987 35.9505C9.6761 36.0718 9.48528 36.1082 9.31143 36.0249C9.13435 35.9453 9.0349 35.7799 9.09231 35.6582C9.14487 35.5333 9.33609 35.4985 9.51277 35.5822C9.69025 35.6618 9.79133 35.8288 9.72987 35.9505ZM10.9308 37.0221C10.8143 37.13 10.5867 37.0799 10.4323 36.9093C10.2726 36.7391 10.2427 36.5115 10.3607 36.4019C10.4808 36.2939 10.7016 36.3445 10.8617 36.5147C11.0213 36.6869 11.0525 36.9129 10.9308 37.0221ZM11.7547 38.3931C11.6051 38.497 11.3605 38.3996 11.2093 38.1825C11.0597 37.9653 11.0597 37.705 11.2125 37.6007C11.3641 37.4964 11.6051 37.5902 11.7583 37.8057C11.9075 38.0264 11.9075 38.2868 11.7547 38.3931ZM13.148 39.9809C13.0142 40.1285 12.7292 40.0889 12.5205 39.8875C12.3071 39.6906 12.2476 39.4113 12.3819 39.2637C12.5173 39.1157 12.8039 39.1574 13.0142 39.3571C13.226 39.5536 13.2907 39.835 13.148 39.9809ZM14.9488 40.517C14.8897 40.7082 14.6152 40.7951 14.3387 40.7138C14.0625 40.6302 13.8818 40.4062 13.9376 40.2129C13.995 40.0205 14.2708 39.9299 14.5493 40.0168C14.825 40.1001 15.0062 40.3225 14.9488 40.517ZM16.9981 40.7443C17.005 40.9457 16.7705 41.1126 16.4802 41.1163C16.1883 41.1227 15.9522 40.9598 15.949 40.7617C15.949 40.5584 16.1782 40.393 16.4701 40.3881C16.7604 40.3825 16.9981 40.5442 16.9981 40.7443ZM19.0113 40.6672C19.0461 40.8636 18.8444 41.0654 18.5561 41.1192C18.2727 41.1709 18.0103 41.0496 17.9743 40.8547C17.9392 40.6534 18.1445 40.4517 18.4275 40.3995C18.7162 40.3494 18.9745 40.4674 19.0113 40.6672Z" fill="black"/>
</svg>
