<svg width="50" height="50" viewBox="0 0 50 50" fill="none" xmlns="http://www.w3.org/2000/svg">
<path d="M25 50C38.8071 50 50 38.8071 50 25C50 11.1929 38.8071 0 25 0C11.1929 0 0 11.1929 0 25C0 38.8071 11.1929 50 25 50Z" fill="#72D6FA"/>
<g opacity="0.2">
<path d="M17.1875 26.5625C21.5022 26.5625 25 23.0647 25 18.75C25 14.4353 21.5022 10.9375 17.1875 10.9375C12.8728 10.9375 9.375 14.4353 9.375 18.75C9.375 23.0647 12.8728 26.5625 17.1875 26.5625Z" fill="#231F20"/>
</g>
<path d="M17.1875 25C21.5022 25 25 21.5022 25 17.1875C25 12.8728 21.5022 9.375 17.1875 9.375C12.8728 9.375 9.375 12.8728 9.375 17.1875C9.375 21.5022 12.8728 25 17.1875 25Z" fill="#E0995E"/>
<g opacity="0.2">
<path d="M38.0469 28.125C38.0469 22.1094 32.8906 17.1875 26.5625 17.1875C21.1719 17.1875 16.7187 20.7031 15.4687 25.4687C12.0312 25.9375 9.375 28.8281 9.375 32.1875C9.375 35.9375 12.5781 39.0625 16.5625 39.0625H38.0469C41.25 39.0625 43.75 36.6406 43.75 33.5938C43.75 30.5469 41.1719 28.125 38.0469 28.125Z" fill="#231F20"/>
</g>
<g opacity="0.2">
<path d="M25 17.1875C25 16.4062 24.8438 15.625 24.6875 14.9219C19.8438 15.3906 15.8594 18.75 14.6875 23.125C14.0625 23.2031 13.4375 23.4375 12.8125 23.6719C14.0625 24.5312 15.5469 25 17.1875 25C21.4844 25 25 21.4844 25 17.1875Z" fill="#231F20"/>
</g>
<path d="M38.0469 26.5625C38.0469 20.5469 32.8906 15.625 26.5625 15.625C21.1719 15.625 16.7187 19.1406 15.4687 23.9063C12.0312 24.375 9.375 27.2656 9.375 30.625C9.375 34.375 12.5781 37.5 16.5625 37.5H38.0469C41.25 37.5 43.75 35.0781 43.75 32.0312C43.75 28.9844 41.1719 26.5625 38.0469 26.5625Z" fill="white"/>
</svg>
