<svg width="50" height="50" viewBox="0 0 50 50" fill="none" xmlns="http://www.w3.org/2000/svg">
<path d="M6.24999 16.6667H43.75C44.3025 16.6667 44.8324 16.4472 45.2231 16.0565C45.6138 15.6658 45.8333 15.1359 45.8333 14.5833C45.8333 14.0308 45.6138 13.5009 45.2231 13.1102C44.8324 12.7195 44.3025 12.5 43.75 12.5H6.24999C5.69746 12.5 5.16755 12.7195 4.77685 13.1102C4.38615 13.5009 4.16666 14.0308 4.16666 14.5833C4.16666 15.1359 4.38615 15.6658 4.77685 16.0565C5.16755 16.4472 5.69746 16.6667 6.24999 16.6667V16.6667ZM43.75 33.3333H6.24999C5.69746 33.3333 5.16755 33.5528 4.77685 33.9435C4.38615 34.3342 4.16666 34.8641 4.16666 35.4167C4.16666 35.9692 4.38615 36.4991 4.77685 36.8898C5.16755 37.2805 5.69746 37.5 6.24999 37.5H43.75C44.3025 37.5 44.8324 37.2805 45.2231 36.8898C45.6138 36.4991 45.8333 35.9692 45.8333 35.4167C45.8333 34.8641 45.6138 34.3342 45.2231 33.9435C44.8324 33.5528 44.3025 33.3333 43.75 33.3333ZM43.75 22.9167H6.24999C5.69746 22.9167 5.16755 23.1362 4.77685 23.5269C4.38615 23.9176 4.16666 24.4475 4.16666 25C4.16666 25.5525 4.38615 26.0824 4.77685 26.4731C5.16755 26.8638 5.69746 27.0833 6.24999 27.0833H43.75C44.3025 27.0833 44.8324 26.8638 45.2231 26.4731C45.6138 26.0824 45.8333 25.5525 45.8333 25C45.8333 24.4475 45.6138 23.9176 45.2231 23.5269C44.8324 23.1362 44.3025 22.9167 43.75 22.9167Z" fill="black"/>
</svg>
